<?xml version="1.0" encoding="UTF-8"?>
<svg xmlns="http://www.w3.org/2000/svg" viewBox="0 0 64 64" width="64" height="64" fill="none" stroke="currentColor" stroke-width="3" stroke-linecap="round" stroke-linejoin="round">
  <path d="M4 22 C10 16, 16 16, 22 22 C28 28, 34 28, 40 22 C46 16, 52 16, 58 22" opacity="0.55"/>
  <path d="M4 33 C10 25, 17 25, 23 33 C29 41, 36 41, 42 33 C48 25, 55 25, 60 33" opacity="0.8"/>
  <path d="M2 48 C9 39, 17 39, 24 48 C31 57, 39 57, 46 48 C51 41.5, 56 40, 61 41.5" stroke-width="3.4"/>
</svg>
